<?xml version="1.0" encoding="utf-8"?>
<!-- Generator: Adobe Illustrator 24.0.1, SVG Export Plug-In . SVG Version: 6.00 Build 0)  -->
<svg version="1.1" id="Layer_1" xmlns="http://www.w3.org/2000/svg" xmlns:xlink="http://www.w3.org/1999/xlink" x="0px" y="0px"
	 viewBox="0 0 704.4 462.9" style="enable-background:new 0 0 704.4 462.9;" xml:space="preserve">
<style type="text/css">
	.st0{fill:#FFFFFF;}
	.st1{fill:none;stroke:#000000;stroke-width:20;stroke-linecap:round;stroke-miterlimit:10;}
	.st2{fill:none;stroke:#000000;stroke-width:20;stroke-linecap:round;stroke-miterlimit:10;stroke-dasharray:10.2224,40.8898;}
	.st3{fill:none;stroke:#000000;stroke-width:20;stroke-linecap:round;stroke-miterlimit:10;stroke-dasharray:11.7595,39.1984;}
	.st4{fill:none;stroke:#000000;stroke-width:20;stroke-linecap:round;stroke-miterlimit:10;stroke-dasharray:10.6644,42.6578;}
</style>
<g>
	<g>
		<path d="M701.6,237.1c0.2-0.2,0.3-0.3,0.3-0.3l-75.7-86.5c0,0-0.2,0.1-0.5,0.2c-1.9-2.3-4.7-3.7-7.8-3.7h-65.2V85.7
			c0-5.6-4.6-10.2-10.2-10.2H221.7c-5.6,0-10.2,4.6-10.2,10.2v224h-8.9c-5.6,0-10.2,4.6-10.2,10.2s4.6,10.2,10.2,10.2h8.9V342
			c0,5.6,4.6,10.2,10.2,10.2h20.1c4.7,20.7,23.2,36.2,45.2,36.2c22.1,0,40.6-15.5,45.2-36.2h239.3v0c4.7,20.7,23.2,36.2,45.2,36.2
			s40.6-15.5,45.2-36.2h32.2c5.6,0,10.2-4.6,10.2-10.2v-97.9C704.4,241.4,703.4,239,701.6,237.1z M287.1,368c-14.3,0-26-11.7-26-26
			s11.7-26,26-26s26,11.7,26,26C313.1,356.4,301.4,368,287.1,368z M532.2,331.8H332.3c-4.7-20.7-23.2-36.2-45.2-36.2
			c-22.1,0-40.6,15.5-45.2,36.2h-9.9v-44.9h300.3L532.2,331.8L532.2,331.8z M532.2,266.5H231.9V95.9h300.3L532.2,266.5L532.2,266.5z
			 M628,183.4l44.3,50.6H628V183.4z M616.8,368c-14.3,0-26-11.7-26-26s11.7-26,26-26c14.3,0,26,11.7,26,26S631.2,368,616.8,368z
			 M684,331.8h-22c-4.7-20.7-23.2-36.2-45.2-36.2c-22.1,0-40.6,15.5-45.2,36.2h-18.9V167.3h55v76.9c0,5.6,4.6,10.2,10.2,10.2H684
			L684,331.8L684,331.8z"/>
	</g>
</g>
<g>
	<g>
		<path d="M507.6,235h-85.7c-5.6,0-10.2,4.6-10.2,10.2s4.6,10.2,10.2,10.2h85.7c5.6,0,10.2-4.6,10.2-10.2S513.2,235,507.6,235z"/>
	</g>
</g>
<g>
	<g>
		<path d="M390.3,235h-6.1c-5.6,0-10.2,4.6-10.2,10.2s4.6,10.2,10.2,10.2h6.1c5.6,0,10.2-4.6,10.2-10.2S395.9,235,390.3,235z"/>
	</g>
</g>
<g>
	<line class="st0" x1="164.5" y1="288.5" x2="11.4" y2="288.5"/>
	<g>
		<line class="st1" x1="164.5" y1="288.5" x2="159.5" y2="288.5"/>
		<line class="st2" x1="118.6" y1="288.5" x2="36.8" y2="288.5"/>
		<line class="st1" x1="16.4" y1="288.5" x2="11.4" y2="288.5"/>
	</g>
</g>
<g>
	<line class="st0" x1="164.5" y1="172.9" x2="11.4" y2="172.9"/>
	<g>
		<line class="st1" x1="164.5" y1="172.9" x2="158.5" y2="172.9"/>
		<line class="st3" x1="119.3" y1="172.9" x2="37" y2="172.9"/>
		<line class="st1" x1="17.4" y1="172.9" x2="11.4" y2="172.9"/>
	</g>
</g>
<g>
	<line class="st0" x1="164.5" y1="230.4" x2="58.5" y2="230.4"/>
	<g>
		<line class="st1" x1="164.5" y1="230.4" x2="159.5" y2="230.4"/>
		<line class="st4" x1="116.8" y1="230.4" x2="84.9" y2="230.4"/>
		<line class="st1" x1="63.5" y1="230.4" x2="58.5" y2="230.4"/>
	</g>
</g>
</svg>
